# xmcd
# 
# Track frame offsets:
#     150
#     13208
#     26155
#     42358
#     58280
#     73575
#     84345
#     99490
#     110353
#     121242
#     135703
#     153959
#     173497
#     190413
#     206298
#     221454
#     231329
#     248166
#     262922
#     277627
#     299553
#     316347
#     327703
#     340976
# 
# Disc length: 4766
# 
# Revision: 1
# Processed by: cddbd v1.5.2PL0 Copyright (c) Steve Scherf et al.
# Submitted via: BonkEnc v1.0.15
# 
DISCID=60129c18
DTITLE=Elvis Presley zja - Good Times
DYEAR=1974
DGENRE=Rock and Roll
TTITLE0=Take Good Care Of Her
TTITLE1=Lovin' Arms
TTITLE2=I Got A Feelin' In My Body
TTITLE3=If That Isn't Love
TTITLE4=She Wears My Ring
TTITLE5=I've Got A Thing About You Baby
TTITLE6=My Boy
TTITLE7=Spanish Eyes
TTITLE8=Talk About The Good Times
TTITLE9=Good Time Charlies Got The Blues
TTITLE10=Take Good Care Of Her ( Rehearsal and Take 1 )
TTITLE11=Lovin' Arms ( Take 1 and Rehearsal )
TTITLE12=I Got A Feelin' In My Body ( Take 1 )
TTITLE13=If That Isn't Love ( Take 1 )
TTITLE14=She Wears My Ring ( Take 8 )
TTITLE15=I've Got A Thing About You Baby ( Take 1 )
TTITLE16=My Boy ( Take 1 )
TTITLE17=Spanish Eyes ( Takes 1 and 2 )
TTITLE18=Talk About The Good Times ( Take 3 )
TTITLE19=Good Time Charlies Got The Blues ( Takes 7 and 8 )
TTITLE20=I Got A Feelin' In My Body ( Take 4 )
TTITLE21=I've Got A Thing About You Baby ( Take 14 )
TTITLE22=Take Good Care Of Her (Take 4 )
TTITLE23=If That Isn't Love ( Splice Of Takes 5 Lfs and 7 )
EXTD=
EXTT0=
EXTT1=
EXTT2=
EXTT3=
EXTT4=
EXTT5=
EXTT6=
EXTT7=
EXTT8=
EXTT9=
EXTT10=
EXTT11=
EXTT12=
EXTT13=
EXTT14=
EXTT15=
EXTT16=
EXTT17=
EXTT18=
EXTT19=
EXTT20=
EXTT21=
EXTT22=
EXTT23=
PLAYORDER=
